<svg id="Layer_2" data-name="Layer 2" xmlns="http://www.w3.org/2000/svg" xmlns:xlink="http://www.w3.org/1999/xlink" viewBox="0 0 181 181">
  <defs>
    <style>
      .cls-1 {
        fill: #125d9b;
      }

      .cls-2 {
        fill: #123c5e;
      }

      .cls-3 {
        fill: #fff;
        filter: url(#drop-shadow-1);
      }

      .cls-4 {
        fill: none;
      }

      .cls-5 {
        fill: #137ee8;
      }
    </style>
    <filter id="drop-shadow-1" filterUnits="userSpaceOnUse">
      <feOffset dx="0" dy="0"/>
      <feGaussianBlur result="blur" stdDeviation="5"/>
      <feFlood flood-color="#000" flood-opacity=".25"/>
      <feComposite in2="blur" operator="in"/>
      <feComposite in="SourceGraphic"/>
    </filter>
  </defs>
  <g id="Layer_1-2" data-name="Layer 1">
    <g>
      <rect class="cls-3" x="15.07" y="15.6" width="150" height="150" rx="9.97" ry="9.97"/>
      <path class="cls-2" d="m144.75,47.45c-.28,2.36-.48,4.73-.88,7.07-.44,2.62-1.06,5.2-1.6,7.78-11.47-.62-23.14-12.32-23.95-23.7,3.29-.67,6.61-1.4,9.95-2.02,1.77-.33,3.58-.45,5.37-.67,2.21,0,4.41,0,6.62,0,.31.06.61.14.93.17,2.16.19,3.25,1.28,3.38,3.41.02.38.12.75.18,1.12v6.84Z"/>
      <path class="cls-5" d="m90.5,121.04c-2.41-2.41-4.79-4.75-7.11-7.15-.19-.2-.13-.78-.01-1.13.83-2.37,1.32-4.79,1.17-7.32-.35-5.69-4.41-9.53-10.11-9.3-2.17.09-4.33.69-6.46,1.16-.65.14-1.06.21-1.58-.32-1.95-2.02-3.95-4-5.96-5.97-.44-.43-.57-.74-.2-1.34,7.48-12.2,16.22-23.37,27.01-32.85,7.21-6.33,15.08-11.63,23.95-15.39.26-.11.52-.2.68-.27,3.88,14.8,13.15,24.02,28.24,27.68-1.47,2.97-2.84,6.05-4.47,8.98-5.7,10.22-13.36,18.82-22.09,26.53-7.11,6.28-14.82,11.74-23.05,16.7Zm31.31-46.17c.03-8.8-7.23-16.06-16.03-16.04-8.81.02-15.92,7.13-15.97,15.96-.05,8.86,7.06,16.03,15.95,16.05,8.85.03,16.03-7.11,16.06-15.97Z"/>
      <path class="cls-1" d="m73.55,102.46c3.28-.08,4.66,1.2,4.66,3.83,0,3.44-1.31,6.44-3.68,8.84-6.02,6.08-12.36,11.78-19.82,16.09-.58.34-1.18.66-1.79.95-1.42.66-2.87.44-3.85-.55-.98-.99-1.28-2.48-.48-3.84,1.76-2.96,3.41-6.03,5.55-8.7,3.48-4.35,7.24-8.5,11.03-12.59,2.38-2.57,5.51-3.81,8.38-4.03Z"/>
      <path class="cls-1" d="m64.76,71.63c-.24.36-.43.65-.64.92-4.39,5.83-8.36,11.94-11.96,18.28-.42.73-.77,1-1.71.88-3.18-.4-6.3.16-9.39.89-.69.16-1.39.31-2.09.42-1.34.2-2.39-.37-3.07-1.47-.69-1.11-.68-2.29.08-3.41.12-.18.23-.37.38-.52,3.84-3.76,7.56-7.64,11.55-11.22,3.22-2.89,7.14-4.64,11.45-5.32,1.79-.28,3.6-.34,5.39.55Z"/>
      <path class="cls-1" d="m109.26,116.4c.13,1.18.43,2.33.36,3.46-.33,5.5-2.53,10.27-6.22,14.28-3.18,3.45-6.58,6.7-9.91,10.02-1.18,1.18-2.51,1.42-3.79.78-1.36-.69-1.94-1.85-1.77-3.34.28-2.47.67-4.93.91-7.41.12-1.3,0-2.62.05-3.93.01-.35.18-.87.44-1.02,6.73-3.86,13.23-8.08,19.48-12.69.05-.04.13-.04.46-.14Z"/>
      <path class="cls-2" d="m79.47,119.39c1.69,1.69,3.39,3.39,5.16,5.16-3.24,1.67-6.5,3.44-9.84,5.06-1.64.8-2.97.2-4.48-1.67,3.08-2.87,6.15-5.74,9.17-8.55Z"/>
      <path class="cls-2" d="m52.75,110.34c-1.57-1.12-2.18-2.57-1.42-4.18,1.6-3.35,3.35-6.63,5-9.89,1.69,1.7,3.31,3.33,4.9,4.93-2.75,2.96-5.62,6.04-8.49,9.14Z"/>
      <path class="cls-1" d="m96.23,74.9c-.04-5.29,4.36-9.7,9.6-9.66,5.25.05,9.57,4.38,9.57,9.61,0,5.25-4.31,9.56-9.57,9.58-5.27.02-9.56-4.24-9.6-9.53Z"/>
      <rect class="cls-4" x="35.44" y="35.96" width="109.27" height="109.27"/>
    </g>
  </g>
</svg>