<svg xmlns="http://www.w3.org/2000/svg" xmlns:xlink="http://www.w3.org/1999/xlink" width="147" height="147" viewBox="0 0 147 147">
  <defs>
    <filter id="Rectangle_658" x="0" y="0" width="147" height="147" filterUnits="userSpaceOnUse">
      <feOffset input="SourceAlpha"/>
      <feGaussianBlur stdDeviation="5" result="blur"/>
      <feFlood flood-opacity="0.251"/>
      <feComposite operator="in" in2="blur"/>
      <feComposite in="SourceGraphic"/>
    </filter>
  </defs>
  <g id="Group_1082" data-name="Group 1082" transform="translate(15.258 14.999)">
    <g transform="matrix(1, 0, 0, 1, -15.26, -15)" filter="url(#Rectangle_658)">
      <rect id="Rectangle_658-2" data-name="Rectangle 658" width="117" height="117" rx="10.15" transform="translate(15 15)" fill="#fff"/>
    </g>
    <path id="Path_1683" data-name="Path 1683" d="M121.427,65.7v2.152c-.281,1.084-.484,2.2-.858,3.252A12.285,12.285,0,0,1,100,75.782c-.382-.382-.725-.8-1.131-1.256A12.271,12.271,0,0,1,79,74.511a12.281,12.281,0,0,1-19.863.039,1.225,1.225,0,0,0-.211.179c-.179.211-.351.429-.538.632a11.915,11.915,0,0,1-6.567,3.923A12.291,12.291,0,0,1,38.09,72.608c-1.162-2.332-1.926-4.812-1.295-7.432,1.482-6.138,3.049-12.252,4.586-18.374A5.336,5.336,0,0,1,46.9,42.49H111.1a5.31,5.31,0,0,1,5.514,4.3c1.061,4.2,2.09,8.4,3.151,12.595.53,2.106,1.1,4.2,1.653,6.3Z" transform="translate(-20.512 -21.129)" fill="#123c5e"/>
    <path id="Path_1684" data-name="Path 1684" d="M69.88,106.728v21.15H49.291c-3.743,0-5.911-2.168-5.911-5.911V94.477c.944.32,1.809.663,2.7.9a16.812,16.812,0,0,0,13.749-1.965,1.274,1.274,0,0,1,1.536-.023,17.536,17.536,0,0,0,18.4-.008,1.24,1.24,0,0,1,1.466,0,17.543,17.543,0,0,0,18.475-.031,1.1,1.1,0,0,1,1.326-.023A16.908,16.908,0,0,0,116.8,94.742c.179-.07.359-.14.546-.2a1.119,1.119,0,0,1,.234-.023c.016.234.047.46.047.694v26.921a5.35,5.35,0,0,1-5.748,5.74H91.139v-21.15H69.888Z" transform="translate(-22.012 -32.274)" fill="#137ee8"/>
    <rect id="Rectangle_659" data-name="Rectangle 659" width="85.216" height="85.216" transform="translate(15.878 15.879)" fill="none"/>
  </g>
</svg>
