<svg id="Layer_2" data-name="Layer 2" xmlns="http://www.w3.org/2000/svg" xmlns:xlink="http://www.w3.org/1999/xlink" viewBox="0 0 181 181">
  <defs>
    <style>
      .cls-1 {
        fill: #125d9b;
      }

      .cls-2 {
        fill: #fff;
        filter: url(#drop-shadow-1);
      }

      .cls-3 {
        fill: #137ee8;
      }
    </style>
    <filter id="drop-shadow-1" filterUnits="userSpaceOnUse">
      <feOffset dx="0" dy="0"/>
      <feGaussianBlur result="blur" stdDeviation="5"/>
      <feFlood flood-color="#000" flood-opacity=".25"/>
      <feComposite in2="blur" operator="in"/>
      <feComposite in="SourceGraphic"/>
    </filter>
  </defs>
  <g id="Layer_1-2" data-name="Layer 1">
    <g>
      <rect class="cls-2" x="15.26" y="15.6" width="150" height="150" rx="10.21" ry="10.21"/>
      <path class="cls-1" d="m125.1,145.43H55.41c-.03-.35-.07-.65-.07-.94,0-8.16-.15-16.32.04-24.47.26-11.22,4.95-20.29,13.8-27.22,1.88-1.47,3.78-1.54,5.97-.68,3.26,1.29,6.62,2.34,10.11,3.55,0,2.24,0,4.78,0,7.32,0,5.71-.01,11.43,0,17.14,0,3.15,2.13,5.42,5,5.4,2.88-.01,4.96-2.27,4.96-5.44.01-7.69,0-15.38,0-23.07v-1.3c3.88-1.4,7.51-2.76,11.17-4,1.74-.59,3.35-.15,4.82.98,8.36,6.46,13.23,14.96,13.77,25.47.46,9.01.1,18.06.1,27.24Z"/>
      <path class="cls-3" d="m90.31,35.77c13.76.02,24.93,11.27,24.88,25.07-.05,13.68-11.28,24.82-25,24.8-13.75-.02-24.93-11.28-24.88-25.08.05-13.68,11.28-24.82,25-24.8Z"/>
    </g>
  </g>
</svg>