<svg xmlns="http://www.w3.org/2000/svg" xmlns:xlink="http://www.w3.org/1999/xlink" width="146" height="146" viewBox="0 0 146 146">
  <defs>
    <filter id="Rectangle_656" x="0" y="0" width="146" height="146" filterUnits="userSpaceOnUse">
      <feOffset input="SourceAlpha"/>
      <feGaussianBlur stdDeviation="5" result="blur"/>
      <feFlood flood-opacity="0.251"/>
      <feComposite operator="in" in2="blur"/>
      <feComposite in="SourceGraphic"/>
    </filter>
  </defs>
  <g id="Group_1081" data-name="Group 1081" transform="translate(14.761 15)">
    <g transform="matrix(1, 0, 0, 1, -14.76, -15)" filter="url(#Rectangle_656)">
      <rect id="Rectangle_656-2" data-name="Rectangle 656" width="116" height="116" rx="10.02" transform="translate(15 15)" fill="#fff"/>
    </g>
    <path id="Path_1679" data-name="Path 1679" d="M65.884,115.122h4.959V73.808c0-2.584.828-3.381,3.443-3.35,4.356.046,8.719,0,13.075,0,2.545,0,3.366.8,3.366,3.311v41.337h4.9v-54.6c-.689,0-1.416.008-2.135,0-3.041-.046-4.008-3.226-.619-5.71a24.985,24.985,0,0,0,9.888-16.379c.658-4.139,5.083-4.085,5.741.07a25.738,25.738,0,0,0,9.9,16.294c3.319,2.569,2.375,5.686-.7,5.725-.673.008-1.346,0-2.089,0v54.652c.874,0,1.718-.015,2.561,0a2.441,2.441,0,0,1,2.654,2.445,2.492,2.492,0,0,1-2.615,2.514c-.232.008-.472,0-.7,0H39.463a9.653,9.653,0,0,1-1.06-.023,2.5,2.5,0,0,1-2.313-2.545,2.447,2.447,0,0,1,2.468-2.375c2.143-.039,4.286-.054,6.422,0a1.015,1.015,0,0,0,1.052-1.029q-.046-12.8,0-25.6a5.039,5.039,0,0,1,.511-2.174,2.124,2.124,0,0,1,2.027-1.021c4.913,0,9.826-.008,14.739.008,1.625,0,2.561,1.06,2.561,2.816V115.1Z" transform="translate(-20.422 -19.713)" fill="#137ee8"/>
    <path id="Path_1680" data-name="Path 1680" d="M59.62,70.244a2.343,2.343,0,0,1-2.414-2.012,15.36,15.36,0,0,1-.085-2.46.947.947,0,0,0-.65-1.068,6.922,6.922,0,0,1-3.064-2.569,2.472,2.472,0,0,1,.441-3.59,2.429,2.429,0,0,1,3.543.673A2.663,2.663,0,0,0,59.481,60.5a2.454,2.454,0,0,0,.851-4.8,5.534,5.534,0,0,0-1.13-.17,7.51,7.51,0,0,1-6.893-5.942A7.361,7.361,0,0,1,56.533,41.4a.858.858,0,0,0,.58-.936c-.031-.82-.031-1.648,0-2.468a2.482,2.482,0,1,1,4.959-.031,2.1,2.1,0,0,1,0,.441c-.279,1.764.108,3.079,1.965,3.876A5.621,5.621,0,0,1,66,44.372a2.379,2.379,0,0,1-.6,3.226,2.438,2.438,0,0,1-3.342-.333c-.178-.193-.317-.426-.48-.627a2.46,2.46,0,0,0-4.4,1.841,2.387,2.387,0,0,0,2.259,2.1,8.112,8.112,0,0,1,5.021,1.857,7.388,7.388,0,0,1-1.571,12.239,1.128,1.128,0,0,0-.8,1.246,13.141,13.141,0,0,1-.046,2.2,2.371,2.371,0,0,1-2.406,2.128Z" transform="translate(-24.062 -19.723)" fill="#137ee8"/>
    <rect id="Rectangle_657" data-name="Rectangle 657" width="84.54" height="84.539" transform="translate(15.76 15.752)" fill="none"/>
    <path id="Path_1681" data-name="Path 1681" d="M83.571,80.73H98.6a2.3,2.3,0,0,1,2.3,2.3v42.359H81.01V83.3a2.572,2.572,0,0,1,2.569-2.569Z" transform="translate(-30.589 -29.985)" fill="#125d9b"/>
    <path id="Path_1682" data-name="Path 1682" d="M136.164,56.463,123.839,36.548a2.606,2.606,0,0,0-4.433,0L107,56.6a2.558,2.558,0,0,0,2.182,3.907h2.367V115.1H132.2V60.509h1.71A2.652,2.652,0,0,0,136.164,56.463Z" transform="translate(-36.382 -19.706)" fill="#123c5e"/>
  </g>
</svg>
