<svg id="Layer_2" data-name="Layer 2" xmlns="http://www.w3.org/2000/svg" xmlns:xlink="http://www.w3.org/1999/xlink" viewBox="0 0 181 181">
  <defs>
    <style>
      .cls-1 {
        fill: #125d9b;
      }

      .cls-2 {
        fill: #123c5e;
      }

      .cls-3 {
        fill: #fff;
        filter: url(#drop-shadow-1);
      }

      .cls-4 {
        fill: none;
      }

      .cls-5 {
        fill: #137ee8;
      }
    </style>
    <filter id="drop-shadow-1" filterUnits="userSpaceOnUse">
      <feOffset dx="0" dy="0"/>
      <feGaussianBlur result="blur" stdDeviation="5"/>
      <feFlood flood-color="#000" flood-opacity=".25"/>
      <feComposite in2="blur" operator="in"/>
      <feComposite in="SourceGraphic"/>
    </filter>
  </defs>
  <g id="Layer_1-2" data-name="Layer 1">
    <g>
      <rect class="cls-3" x="15.26" y="15.6" width="150" height="150" rx="10.06" ry="10.06"/>
      <path class="cls-5" d="m110.71,35.46c0,5.93,0,11.63,0,17.33,0,6.99,4.2,11.17,11.22,11.18,5.62,0,11.24,0,16.86.01.08,0,.17.04.41.09.04.48.12,1.01.12,1.54,0,23.25.02,46.5,0,69.75,0,5.91-4.45,10.36-10.35,10.37-21.72.02-43.43.02-65.15,0-5.15,0-9.58-3.81-10.08-8.6,13.09,1.73,24.15-2.16,32.7-12.31,5.88-6.97,8.44-15.21,7.83-24.3-1.4-21.17-21.08-35.74-40.8-31.98v-1.39c0-6.9,0-13.8,0-20.7,0-6.74,4.23-10.99,11.01-11,13.2-.02,26.4,0,39.6,0,2.16,0,4.33,0,6.63,0Zm1.95,48.96c3.92,0,7.84,0,11.76,0,1.7,0,2.67-.77,2.65-2.07-.02-1.27-.95-2.01-2.58-2.01-7.84,0-15.67,0-23.51,0-1.6,0-2.53.79-2.52,2.07.02,1.27.95,2.01,2.57,2.01,3.88,0,7.75,0,11.63,0Zm.23,28.62c-3.96,0-7.92,0-11.88,0-1.61,0-2.55.76-2.55,2.04,0,1.28.93,2.04,2.54,2.04,7.84,0,15.67,0,23.51,0,1.61,0,2.55-.77,2.55-2.04,0-1.27-.93-2.04-2.55-2.04-3.88,0-7.75,0-11.63,0Zm1.96-12.27c3.19,0,6.39,0,9.58,0,1.7,0,2.66-.78,2.63-2.08-.03-1.27-.96-2-2.59-2-6.43,0-12.86,0-19.29,0-1.7,0-2.66.77-2.63,2.08.03,1.27.96,2,2.59,2,3.24,0,6.47,0,9.71,0Zm-28.57-36.8c-1.96,0-3.92-.01-5.88,0-1.49.01-2.4.83-2.38,2.07.02,1.2.91,2,2.32,2.01,3.88.02,7.75.02,11.63,0,1.49,0,2.41-.83,2.39-2.07-.02-1.23-.94-2-2.45-2.01-1.87-.01-3.75,0-5.62,0Z"/>
      <path class="cls-1" d="m59.53,133.48c-16.94-.03-30.63-13.82-30.6-30.8.03-16.8,13.81-30.54,30.61-30.53,17.05.01,30.76,13.75,30.72,30.8-.03,16.85-13.84,30.57-30.74,30.54Zm2.12-36.7c0-1.92,0-3.83,0-5.75,0-1.6-.78-2.54-2.06-2.53-1.27.01-2.02.94-2.03,2.56,0,3.32.02,6.64-.03,9.96,0,.52-.27,1.15-.62,1.54-1.51,1.62-3.11,3.15-4.65,4.74-1.02,1.05-1.09,2.15-.24,3.04.89.93,2.04.87,3.13-.2,1.88-1.85,3.79-3.68,5.57-5.62.52-.56.84-1.47.9-2.25.13-1.82.04-3.66.04-5.49Z"/>
      <path class="cls-2" d="m114.8,37.41c7.5,7.5,15,15,22.47,22.47-.12,0-.44,0-.76,0-5.07,0-10.14,0-15.21,0-3.91,0-6.49-2.58-6.5-6.47-.01-5.07,0-10.14,0-15.21v-.79Z"/>
      <rect class="cls-4" x="28.22" y="35.96" width="110.55" height="109.27"/>
    </g>
  </g>
</svg>