<svg xmlns="http://www.w3.org/2000/svg" xmlns:xlink="http://www.w3.org/1999/xlink" width="146" height="147" viewBox="0 0 146 147">
  <defs>
    <filter id="Rectangle_628" x="0" y="0" width="146" height="147" filterUnits="userSpaceOnUse">
      <feOffset input="SourceAlpha"/>
      <feGaussianBlur stdDeviation="5" result="blur"/>
      <feFlood flood-opacity="0.251"/>
      <feComposite operator="in" in2="blur"/>
      <feComposite in="SourceGraphic"/>
    </filter>
    <clipPath id="clip-path">
      <rect id="Rectangle_630" data-name="Rectangle 630" width="84.765" height="84.764" fill="none"/>
    </clipPath>
  </defs>
  <g id="Layer_1" data-name="Layer 1" transform="translate(14.523 15.001)">
    <g id="Group_1057" data-name="Group 1057" transform="translate(0 0)">
      <g transform="matrix(1, 0, 0, 1, -14.52, -15)" filter="url(#Rectangle_628)">
        <rect id="Rectangle_628-2" data-name="Rectangle 628" width="116" height="117" rx="10.68" transform="translate(15 15)" fill="#fff"/>
      </g>
      <g id="Group_1056" data-name="Group 1056" transform="translate(20.83 16.214)" clip-path="url(#clip-path)">
        <path id="Path_1656" data-name="Path 1656" d="M98.837,66.66H73.02c.59-2.009,1.1-3.98,1.738-5.9a29.011,29.011,0,0,1,5-9.518,11.355,11.355,0,0,1,3.514-2.963,5.569,5.569,0,0,1,5.624.109,13.19,13.19,0,0,1,4.391,4.29,38.144,38.144,0,0,1,5.236,12.59C98.627,65.7,98.72,66.132,98.837,66.66Z" transform="translate(-49.616 -38.563)" fill="#137ee8"/>
        <path id="Path_1657" data-name="Path 1657" d="M60.82,78.428a77.192,77.192,0,0,0,.008,19.06h-.737q-7.284,0-14.561.008c-.52,0-.768-.1-.915-.667a35.525,35.525,0,0,1,.031-17.857c.093-.365.155-.621.644-.621q7.61.023,15.228.016a2.111,2.111,0,0,1,.3.054Z" transform="translate(-42.994 -45.467)" fill="#137ee8"/>
        <path id="Path_1658" data-name="Path 1658" d="M109.85,66.261c-1.691-7.556-4.026-14.785-9.72-20.441,8.5.566,22.527,12.2,24.645,20.441H109.85Z" transform="translate(-55.696 -38.171)" fill="#137ee8"/>
        <path id="Path_1659" data-name="Path 1659" d="M62.428,66.237H47.41A35.946,35.946,0,0,1,72.265,45.68c-5.81,5.771-8.145,12.986-9.836,20.557Z" transform="translate(-43.873 -38.14)" fill="#137ee8"/>
        <path id="Path_1660" data-name="Path 1660" d="M47.42,109.22H62.438c1.683,7.54,4.018,14.762,9.666,20.386-2.366.248-10.635-3.77-14.693-7.16A36.018,36.018,0,0,1,47.42,109.22Z" transform="translate(-43.875 -52.39)" fill="#137ee8"/>
        <path id="Path_1661" data-name="Path 1661" d="M140.725,73.18a2.506,2.506,0,0,0,.326.155,4.56,4.56,0,0,1,2.3,7.408c-2.149,2.684-4.336,5.329-6.508,7.99l-6.8,8.331c-.14.171-.295.334-.388.442l-9.5-9.5c.349-.295.776-.659,1.21-1.016C126.5,82.8,131.61,78.6,136.761,74.444a14.253,14.253,0,0,1,2.327-1.257h1.645Z" transform="translate(-60.188 -44.307)" fill="#125d9b"/>
        <path id="Path_1662" data-name="Path 1662" d="M85.588,126.358a10.885,10.885,0,0,0,1.629-6.26c0-.279.008-.559.016-.846a20,20,0,0,1,.248-3.429,9.321,9.321,0,0,1,4.926-6.594H73.13c1.14,4.957,2.661,9.689,5.508,13.893a14.074,14.074,0,0,0,3.98,4.088,6.784,6.784,0,0,0,2.614,1.055,2.637,2.637,0,0,1,.349-1.924Z" transform="translate(-49.641 -52.392)" fill="#137ee8"/>
        <path id="Path_1663" data-name="Path 1663" d="M99.718,126.395a36.137,36.137,0,0,0-4.414.574,28,28,0,0,0-3.4,1.435,1.36,1.36,0,0,1-1.047,0c-.163-.1-.194-.737-.039-.954,1.544-2.149,1.862-4.608,1.924-7.152a23.618,23.618,0,0,1,.24-4,7.783,7.783,0,0,1,6.85-6.314,8.5,8.5,0,0,1,8.642,4.6c2.343,4.6-.016,11.582-6.951,11.946-.6.031-1.195,0-1.792,0a.6.6,0,0,0-.015-.116Z" transform="translate(-53.585 -52.545)" fill="#123c5e"/>
        <path id="Path_1664" data-name="Path 1664" d="M99.528,95.34a70.2,70.2,0,0,0-.256-16.88h-27.4a70.158,70.158,0,0,0,0,19H98.311a8.383,8.383,0,0,1,1.21-2.118Z" transform="translate(-49.214 -45.491)" fill="#137ee8"/>
        <path id="Path_1665" data-name="Path 1665" d="M124.659,109.218l.093.093-1.055,1.125c-.45.481-.877,1.032-1.327,1.614-1.4,1.8-2.979,3.832-5.872,4.654l-1.536.434-.434-1.536a12.233,12.233,0,0,0-3.08-5.469c-.116.512-.24,1.016-.365,1.528a10,10,0,0,1,1.047,11.574,9.455,9.455,0,0,1-8,4.7c-.194.008-.388.016-.613.016-.481.566-.985,1.109-1.52,1.645,2.366.248,10.635-3.77,14.693-7.16a36.018,36.018,0,0,0,9.992-13.226h-2.025Z" transform="translate(-56.115 -52.387)" fill="#137ee8"/>
        <path id="Path_1666" data-name="Path 1666" d="M107.778,102.662c.908-3.212,3.762-4.538,5.81-6.462l10.24,10.24c-1.908,2.04-3.235,4.9-6.47,5.818a13.137,13.137,0,0,0-9.588-9.6Z" transform="translate(-57.409 -49.47)" fill="#125d9b"/>
        <path id="Path_1667" data-name="Path 1667" d="M116.327,89.052c.442-.372.892-.745,1.334-1.117l.334-.279c.279-.233.582-.5.892-.745,1.117-.915,2.242-1.831,3.359-2.746,2.319-1.893,4.678-3.824,7.051-5.756a1.716,1.716,0,0,0-.372-.039c-4.848.016-9.7.008-14.553.008h-.752a76.709,76.709,0,0,1,.543,12.334l.861-.628c.434-.341.869-.69,1.311-1.032Z" transform="translate(-58.721 -45.471)" fill="#137ee8"/>
        <rect id="Rectangle_629" data-name="Rectangle 629" width="116.361" height="116.36" transform="translate(-15.794 -15.794)" fill="none" stroke="#fff" stroke-width="1"/>
      </g>
    </g>
  </g>
</svg>
