<?xml version="1.0" encoding="UTF-8"?>
<svg id="Layer_2" data-name="Layer 2" xmlns="http://www.w3.org/2000/svg" xmlns:xlink="http://www.w3.org/1999/xlink" viewBox="0 0 371.3 77">
  <defs>
    <style>
      .cls-1 {
        filter: url(#drop-shadow-1);
      }

      .cls-1, .cls-2 {
        fill: #137ee8;
        stroke-width: 0px;
      }
    </style>
    <filter id="drop-shadow-1" filterUnits="userSpaceOnUse">
      <feOffset dx="0" dy="1.4"/>
      <feGaussianBlur result="blur" stdDeviation="2.09"/>
      <feFlood flood-color="#000" flood-opacity=".15"/>
      <feComposite in2="blur" operator="in"/>
      <feComposite in="SourceGraphic"/>
    </filter>
  </defs>
  <g id="Layer_1-2" data-name="Layer 1">
    <g>
      <g>
        <path class="cls-2" d="m72.99,59.42V15.76c0-.59.39-.98.98-.98h15.38c8.34,0,12.58,5.34,12.58,11.47,0,4.82-2.74,8.15-6,9.58,4.76,1.24,8.93,5.08,8.93,11.67,0,7.62-5.21,12.9-16.03,12.9h-14.86c-.59,0-.98-.39-.98-.98Zm14.53-26.52c3.45,0,5.6-1.56,5.6-5.15s-2.15-4.76-5.6-4.76h-5.34v9.91h5.34Zm.65,19.29c4.5,0,7.23-1.89,7.23-6.06s-2.74-6-7.23-6h-6v12.06h6Z"/>
        <path class="cls-2" d="m110.92,59.42v-29.98c0-.59.39-.98.98-.98h6.78c.59,0,.91.26.98,1.04l.26,4.11c1.11-3.39,3.13-5.93,6.91-5.93,1.5,0,2.41.39,2.93.78.46.33.59.72.59,1.3v5.73c0,.78-.46.98-1.3.78-.72-.2-1.43-.33-2.35-.33-4.43,0-6.78,2.93-6.78,7.49v15.97c0,.59-.39.98-.98.98h-7.04c-.59,0-.98-.39-.98-.98Z"/>
        <path class="cls-2" d="m133.6,44.43c0-9.45,6.19-16.75,15.18-16.75,4.82,0,8.28,1.96,10.43,5.28l.13-3.52c0-.59.39-.98.98-.98h6.39c.59,0,.98.39.98.98v29.98c0,.59-.46.98-1.04.98h-6.32c-.59,0-.98-.39-.98-.98l-.13-3.52c-2.22,3.26-5.67,5.28-10.43,5.28-8.99,0-15.18-7.23-15.18-16.75Zm17.07,8.54c4.76,0,8.08-3.39,8.08-8.54s-3.32-8.54-8.08-8.54-8.28,3.45-8.28,8.54,3.52,8.54,8.28,8.54Z"/>
        <path class="cls-2" d="m175.04,17.78c0-2.74,2.15-4.95,5.02-4.95s4.95,2.22,4.95,4.95-2.09,5.02-4.95,5.02-5.02-2.22-5.02-5.02Zm.46,11.67c0-.59.39-.98.98-.98h7.1c.59,0,.98.39.98.98v29.98c0,.59-.39.98-.98.98h-7.1c-.59,0-.98-.39-.98-.98v-29.98Z"/>
        <path class="cls-2" d="m192.38,59.42v-29.98c0-.59.39-.98.98-.98h6.78c.59,0,.98.26.98,1.04l.26,3.78c1.82-3.26,4.89-5.6,9.65-5.6,6.65,0,11.54,4.82,11.54,13.16v18.57c0,.59-.46.98-1.04.98h-6.97c-.59,0-.98-.39-.98-.98v-16.55c0-4.5-2.09-6.91-5.93-6.91s-6.26,2.41-6.26,6.91v16.55c0,.59-.39.98-.98.98h-7.04c-.59,0-.98-.39-.98-.98Z"/>
        <path class="cls-2" d="m230.89,59.42V15.76c0-.59.39-.98.98-.98h13.75c10.82,0,16.03,6.06,16.03,14.79s-5.21,14.86-16.03,14.86h-5.41v14.99c0,.59-.39.98-.98.98h-7.36c-.59,0-.98-.39-.98-.98Zm14.4-23.27c3.98,0,7.43-1.37,7.43-6.58s-3.45-6.52-7.43-6.52h-5.08v13.1h5.08Z"/>
        <path class="cls-2" d="m264.46,44.43c0-9.45,6.19-16.75,15.18-16.75,4.82,0,8.28,1.96,10.43,5.28l.13-3.52c0-.59.39-.98.98-.98h6.39c.59,0,.98.39.98.98v29.98c0,.59-.46.98-1.04.98h-6.32c-.59,0-.98-.39-.98-.98l-.13-3.52c-2.22,3.26-5.67,5.28-10.43,5.28-8.99,0-15.18-7.23-15.18-16.75Zm17.07,8.54c4.76,0,8.08-3.39,8.08-8.54s-3.32-8.54-8.08-8.54-8.28,3.45-8.28,8.54,3.52,8.54,8.28,8.54Z"/>
        <path class="cls-2" d="m304.67,44.3c0-9.45,7.1-16.62,16.68-16.62,5.28,0,9.65,2.22,12.38,5.74.39.46.26.98-.13,1.37l-3.91,3.85c-.52.52-1.24.46-1.69,0-1.76-1.76-3.65-2.67-6.26-2.67-5.08,0-8.41,3.65-8.41,8.34s3.32,8.6,8.6,8.6c2.48,0,4.37-.91,6.13-2.67.46-.46,1.17-.52,1.69,0l3.91,3.85c.39.39.52.91.13,1.37-2.74,3.52-7.1,5.74-12.25,5.74-9.71,0-16.88-7.3-16.88-16.88Z"/>
        <path class="cls-2" d="m340.12,59.42V14.78c0-.59.39-.98.98-.98h7.1c.59,0,.98.39.98.98v26.59l10.49-12.38c.33-.39.72-.52,1.17-.52h8.02c.85,0,1.04.52.52,1.17l-10.82,12.32,12.51,17.27c.46.65.2,1.17-.59,1.17h-7.56c-.52,0-.85-.13-1.17-.59l-8.6-11.67-3.98,4.5v6.78c0,.59-.39.98-.98.98h-7.1c-.59,0-.98-.39-.98-.98Z"/>
      </g>
      <g>
        <path class="cls-1" d="m35.2,68.72c-.88,0-1.76-.23-2.54-.68l-23.06-13.31c-1.57-.91-2.54-2.59-2.54-4.41v-26.63c0-1.81.98-3.5,2.54-4.41l23.06-13.31c1.57-.91,3.52-.91,5.09,0l23.06,13.31c1.57.91,2.55,2.59,2.55,4.41v26.63c0,1.81-.98,3.5-2.55,4.41l-23.06,13.31c-.78.45-1.66.68-2.54.68Zm0-61.06c-.47,0-.94.12-1.36.36h0s-23.06,13.31-23.06,13.31c-.84.49-1.36,1.39-1.36,2.36v26.63c0,.97.52,1.88,1.36,2.36l23.06,13.31c.84.48,1.89.49,2.73,0l23.06-13.31c.84-.49,1.36-1.39,1.36-2.36v-26.63c0-.97-.52-1.88-1.36-2.36l-23.06-13.31c-.42-.24-.89-.36-1.36-.36Z"/>
        <path class="cls-2" d="m50.23,35.29c.08-.12.15-.22.21-.32.7-1.05.91-2.21.67-3.43-.35-1.79-1.49-2.9-3.16-3.51-.23-.08-.3-.16-.26-.4.38-2.44-.77-4.41-3.08-5.25-.23-.08-.28-.22-.32-.41-.57-2.91-3.63-4.05-6.06-2.65-1.4.81-1.89,2.13-1.89,3.67,0,.19,0,3.4,0,3.59h-2.27v-3.56c0-.14,0-.29-.01-.43-.09-2.12-1.62-3.69-3.74-3.84-2.06-.15-3.77,1.16-4.18,3.21-.05.26-.17.38-.41.47-2.03.74-3.15,2.43-3.07,4.58.01.31.06.62.09.92-3.4.99-4.55,4.77-2.58,7.36-4.43,2.23-4.33,8.67.44,10.53-1.12,3.17,1.7,6.7,5.46,5.94.03.13.06.25.09.38.39,1.59,1.34,2.68,2.96,3.03,1.55.34,2.94-.05,4.01-1.25.71-.8.96-1.79.96-2.85,0-.21,0-3.49,0-3.69h2.27c0,.19,0,3.45,0,3.63,0,.35.03.7.09,1.04.32,1.85,1.82,3.13,3.74,3.23,1.89.09,3.51-1.05,4.02-2.84.07-.23.11-.46.17-.69,1.76.32,3.28-.09,4.47-1.4,1.19-1.31,1.51-2.84.98-4.54,4.8-1.89,4.86-8.28.42-10.52Z"/>
      </g>
    </g>
  </g>
</svg>